<?xml version="1.0" encoding="UTF-8"?> <!-- Generator: Adobe Illustrator 24.1.0, SVG Export Plug-In . SVG Version: 6.00 Build 0) --> <svg xmlns="http://www.w3.org/2000/svg" xmlns:xlink="http://www.w3.org/1999/xlink" version="1.1" id="Layer_1" x="0px" y="0px" viewBox="0 0 850.4 566.9" style="enable-background:new 0 0 850.4 566.9;" xml:space="preserve"> <style type="text/css"> .st0{fill:#E3057D;} .st1{fill:#54616C;} </style> <g> <g> <g> <g> <g> <path class="st0" d="M178.7,220.4c-9.7,0-17.7,7.9-17.7,17.7v66.7c0,9.7,7.9,17.7,17.7,17.7c9.7,0,17.7-7.9,17.7-17.7v-66.7 C196.2,228.4,188.4,220.4,178.7,220.4z"></path> </g> </g> </g> <g> <g> <g> <path class="st0" d="M232.2,197.8c-9.7,0-17.7,7.9-17.7,17.7c0,9.7,7.9,17.7,17.7,17.7c9.7,0,17.7-7.9,17.7-17.7 S241.9,197.8,232.2,197.8z"></path> </g> </g> </g> <g> <g> <g> <path class="st0" d="M280.6,231c-9.7,0-17.7,7.9-17.7,17.7c0,9.7,7.9,17.7,17.7,17.7c9.7,0,17.7-7.9,17.7-17.7 C298.1,238.8,290.3,231,280.6,231z"></path> </g> </g> </g> </g> <g> <g> <g> <g> <path class="st1" d="M232.5,246.9c-9.7,0-17.7,7.9-17.7,17.7v66.7c0,9.7,7.9,17.7,17.7,17.7c9.7,0,17.7-7.9,17.7-17.7v-66.7 C250.1,254.8,242.2,246.9,232.5,246.9z"></path> </g> </g> </g> <g> <g> <g> <path class="st1" d="M280.6,335c-9.7,0-17.7,7.9-17.7,17.7s7.9,17.7,17.7,17.7c9.7,0,17.7-7.9,17.7-17.7 C298.1,343,290.3,335,280.6,335z"></path> </g> </g> </g> </g> <g> <path class="st1" d="M661.1,249.2h-4.8v-3h13.2v3h-4.9v13.1h-3.5V249.2z"></path> <path class="st1" d="M671.8,246.2h5l3.7,11.1l0,0l3.5-11.1h5v16.1h-3.3v-11.4l0,0l-3.9,11.4H679l-3.9-11.3l0,0v11.3h-3.3 L671.8,246.2L671.8,246.2z"></path> </g> <path class="st0" d="M357.8,267c-1.8-1.5-3.9-2.2-6.5-2.2c-2.1,0-4.3,0.2-6.5,0.7c-2.1,0.5-4.2,1.3-6.1,2.3c-1.9,1.1-3.6,2.4-5.1,4 c-1.1,1.2-2,2.4-2.8,3.8V274c0-2.2-0.7-4.2-2.2-5.6c-1.5-1.5-3.3-2.2-5.5-2.2s-4,0.7-5.5,2.2c-1.5,1.5-2.2,3.4-2.2,5.6v53.2 c0,2.2,0.7,4.2,2.2,5.6c1.5,1.5,3.3,2.2,5.5,2.2s4-0.7,5.5-2.2c1.5-1.5,2.2-3.4,2.2-5.6v-30.6c0-3.1,0.4-5.7,1.3-8.1 c0.9-2.2,1.9-4.2,3.2-5.7c1.4-1.6,2.8-2.7,4.4-3.4s3.2-1.1,4.7-1.1c1.7,0,3.2,0.3,4.6,0.9c1.4,0.6,2.8,0.9,4.5,0.9s3.3-0.6,4.8-1.9 c1.5-1.3,2.2-3.3,2.2-6.2C360.4,270.2,359.6,268.5,357.8,267z"></path> <path class="st0" d="M422.2,322.6l-18.5-23.1l17.8-21.7c0.6-0.7,1.2-1.6,1.4-2.4c0.2-0.9,0.4-1.7,0.4-2.6c0-1.8-0.7-3.4-2.1-4.8 c-1.4-1.4-3.2-2.1-5.2-2.1c-2.4,0-4.5,1.2-6.2,3.5L395,288.8l-15.9-19.7c-1.7-2.1-3.8-3.2-6.3-3.2c-2,0-3.9,0.7-5.4,2.2 c-1.6,1.5-2.3,3.3-2.3,5.5c0,1.7,0.5,3.3,1.7,4.7l18.5,23.1l-17.9,21.9c-1.3,1.6-1.9,3.2-1.9,4.9c0,1.9,0.9,3.5,2.6,4.8 c1.7,1.4,3.4,2,5.1,2c2.4,0,4.6-1.1,6.2-3.2l15.1-19.2l15.4,19.2c1.7,2.2,3.8,3.3,6.3,3.3c2,0,3.8-0.7,5.4-2.3 c1.6-1.6,2.4-3.4,2.4-5.5C423.9,325.5,423.2,324,422.2,322.6z"></path> <path class="st1" d="M533.7,303.8c1.6-1.3,2.3-3,2.4-5c0-4.7-0.9-9.1-2.7-13.1c-1.8-4.2-4.2-7.8-7.1-10.9c-3-3.1-6.5-5.6-10.3-7.5 c-3.9-1.8-8.1-2.7-12.5-2.7c-5.6,0-11.1,1.5-16.1,4.4c-5.1,2.9-9.2,7.1-12.4,12.6c-3.1,5.4-4.7,12-4.7,19.8 c0,6.6,1.5,12.6,4.4,17.8s7,9.4,12.4,12.5c5.3,3.1,11.7,4.6,19.1,4.6c4.3,0,8.4-0.7,12.5-2.1c4-1.4,7.1-3.1,9.4-5 c2.4-1.9,3.6-4,3.6-6.3c0-1.7-0.6-3.2-1.9-4.5c-1.3-1.3-2.8-1.9-4.7-1.9c-1.4,0-2.9,0.4-4.4,1.2c-1,0.5-2,1.2-3.2,1.9 c-1.2,0.7-2.7,1.4-4.6,1.9c-1.9,0.5-4.5,0.7-7.6,0.7c-3.4,0-6.7-0.9-9.7-2.6c-3.1-1.7-5.5-4.2-7.5-7.3c-1.2-1.9-1.9-4-2.3-6.4h42.5 C530.4,305.7,532.2,305.1,533.7,303.8z M490.4,283.2c1.6-1.6,3.5-2.8,5.7-3.5c2.2-0.6,4.7-1.1,7.2-1.1c2.7,0,5.2,0.5,7.6,1.7 c2.3,1.2,4.4,2.8,6,4.7c1.6,2,2.4,4.3,2.7,6.7v0.9h-33.8c0.2-1.1,0.4-2,0.7-3C487.6,287.1,488.8,284.9,490.4,283.2z"></path> <path class="st1" d="M545,324.1c-0.9-1.2-1.3-2.8-1.2-4.7c0.1-1.9,1.2-3.5,3.3-4.9c1.4-0.9,2.9-1.3,4.4-1.1c1.6,0.1,3.1,1,4.5,2.3 c2.4,2.4,5.1,4.5,7.9,5.9c2.8,1.4,6.2,2,10.3,2c1.3-0.1,2.7-0.3,4.3-0.5c1.6-0.3,2.9-1,4-2c1.2-1.1,1.7-2.8,1.7-5 c0-1.9-0.6-3.4-1.9-4.5c-1.3-1.1-3-2-5.1-2.9c-2.1-0.7-4.5-1.5-7-2.2c-2.7-0.7-5.4-1.6-8.2-2.6s-5.3-2.1-7.7-3.6 c-2.3-1.5-4.3-3.5-5.6-6c-1.5-2.4-2.2-5.6-2.2-9.4c0-4.3,1.2-8,3.6-11s5.5-5.3,9.4-6.9c3.8-1.6,7.9-2.4,12-2.4c2.7,0,5.4,0.3,8.4,1 c2.9,0.6,5.7,1.7,8.4,3.1c2.7,1.4,4.9,3.3,6.7,5.6c1,1.3,1.5,2.9,1.7,4.7c0.2,1.8-0.6,3.4-2.4,4.9c-1.3,1.1-2.8,1.5-4.5,1.4 c-1.7-0.1-3.1-0.7-4.3-1.7c-1.5-1.9-3.4-3.4-5.9-4.5c-2.4-1.1-5.2-1.7-8.4-1.7c-1.3,0-2.7,0.1-4.2,0.4c-1.5,0.3-2.8,1-3.9,1.9 c-1.1,1-1.7,2.6-1.7,4.7c0,2,0.6,3.5,1.9,4.7c1.3,1.2,3,2.1,5.2,2.9c2.2,0.7,4.6,1.5,7,2.1c2.6,0.6,5.2,1.5,7.9,2.4 c2.7,1,5.1,2.2,7.3,3.7c2.2,1.6,4,3.5,5.4,6c1.4,2.4,2,5.5,2,9.4c0,4.4-1.3,8.1-3.8,11.2s-5.7,5.4-9.7,7c-3.8,1.6-7.8,2.3-11.8,2.3 c-5.1,0-10.1-0.9-15.2-2.7C552.6,331.8,548.3,328.6,545,324.1z"></path> <path class="st1" d="M607.1,324.1c-0.9-1.2-1.3-2.8-1.2-4.7c0.1-1.9,1.2-3.5,3.3-4.9c1.4-0.9,2.9-1.3,4.4-1.1 c1.6,0.1,3.1,1,4.5,2.3c2.4,2.4,5.1,4.5,7.9,5.9c2.8,1.4,6.2,2,10.3,2c1.3-0.1,2.7-0.3,4.3-0.5c1.6-0.3,2.9-1,4-2 c1.2-1.1,1.7-2.8,1.7-5c0-1.9-0.6-3.4-1.9-4.5c-1.3-1.1-3-2-5.1-2.9c-2.1-0.7-4.5-1.5-7-2.2c-2.7-0.7-5.4-1.6-8.2-2.6 s-5.3-2.1-7.7-3.6c-2.3-1.5-4.3-3.5-5.6-6c-1.5-2.4-2.2-5.6-2.2-9.4c0-4.3,1.2-8,3.6-11s5.5-5.3,9.4-6.9c3.8-1.6,7.9-2.4,12-2.4 c2.7,0,5.4,0.3,8.4,1c2.9,0.6,5.7,1.7,8.4,3.1c2.7,1.4,4.9,3.3,6.7,5.6c1,1.3,1.5,2.9,1.7,4.7c0.2,1.8-0.6,3.4-2.4,4.9 c-1.3,1.1-2.8,1.5-4.5,1.4c-1.7-0.1-3.1-0.7-4.3-1.7c-1.5-1.9-3.4-3.4-5.9-4.5c-2.4-1.1-5.2-1.7-8.4-1.7c-1.3,0-2.7,0.1-4.2,0.4 c-1.5,0.3-2.8,1-3.9,1.9c-1.1,1-1.7,2.6-1.7,4.7c0,2,0.6,3.5,1.9,4.7c1.3,1.2,3,2.1,5.2,2.9c2.2,0.7,4.6,1.5,7,2.1 c2.6,0.6,5.2,1.5,7.9,2.4c2.7,1,5.1,2.2,7.3,3.7c2.2,1.6,4,3.5,5.4,6c1.4,2.4,2,5.5,2,9.4c0,4.4-1.3,8.1-3.8,11.2s-5.7,5.4-9.7,7 c-3.8,1.6-7.8,2.3-11.8,2.3c-5.1,0-10.1-0.9-15.2-2.7C614.7,331.8,610.5,328.6,607.1,324.1z"></path> <path class="st1" d="M435.3,248.7c0-2.2,0.7-4.2,2.2-5.6c1.5-1.5,3.3-2.2,5.5-2.2c2.2,0,4,0.7,5.5,2.2c1.5,1.5,2.2,3.4,2.2,5.6 v57.9c0,1.9,0.1,3.7,0.3,5.4c0.2,1.7,0.7,3.2,1.6,4.5c0.9,1.3,2.3,2.2,4.4,2.9c1.9,0.6,3.4,1.5,4.7,2.6c1.3,1.1,1.9,2.7,1.9,4.5 v1.4c0,2-0.6,3.7-2,5.1c-1.4,1.4-3.1,2.1-5.2,2.1c-3.9,0-7.6-1-10.6-3c-3.2-2-5.7-4.8-7.6-8.3c-1.9-3.6-2.9-7.8-2.9-12.7v-62.4 H435.3z"></path> </g> </svg> 